<svg width="22" height="22" viewBox="0 0 22 22" fill="none" xmlns="http://www.w3.org/2000/svg">
<path d="M9.08004 0.439941C4.57817 0.439941 0.920044 4.09807 0.920044 8.59994C0.920044 13.1018 4.57817 16.7599 9.08004 16.7599C10.8613 16.7599 12.5075 16.1862 13.85 15.2149L20.165 21.5149L21.515 20.1649L15.275 13.9099C16.5013 12.4812 17.24 10.6268 17.24 8.59994C17.24 4.09807 13.5819 0.439941 9.08004 0.439941ZM9.08004 1.39994C13.0625 1.39994 16.28 4.61744 16.28 8.59994C16.28 12.5824 13.0625 15.7999 9.08004 15.7999C5.09754 15.7999 1.88004 12.5824 1.88004 8.59994C1.88004 4.61744 5.09754 1.39994 9.08004 1.39994Z" fill="white"/>
</svg>
